# xmcd
#
# Track frame offsets:
#	150
#	11451
#	14184
#	28639
#	42737
#	58194
#	71397
#	87482
#	101919
#	103587
#	115762
#	131990
#	151270
#	163126
#	176235
#	178440
#	190701
#	206880
#	218471
#	231744
#	246433
#	264125
#	279290
#	291963
#	303615
#	316568
#
# Disc length: 4392 seconds
#
# Revision: 0
# Processed by: cddbd v1.5.2PL0 Copyright (c) Steve Scherf et al.
# Submitted via: EasyCDDAExtractor 15.3.0.1
#
DISCID=8c11261a
DTITLE=Slim Dusty - The Son of Noisy Dan
DYEAR=2013
DGENRE=Country
TTITLE0=Singer From Down Under
TTITLE1=Slim Remembers #1
TTITLE2=Son of Noisy Dan
TTITLE3=Up the Old Nulla Road
TTITLE4=Music My Dad Played to Me
TTITLE5=Sittin' on the Old Front Verabdah
TTITLE6=Yellow Gully
TTITLE7=Lace Up Shoes
TTITLE8=Slim Remembers #2
TTITLE9=When the Rain Tumbles Down in July
TTITLE10=Regal Zonophone
TTITLE11=The Day I Went Back Home
TTITLE12=Things I See Around Me
TTITLE13=Back With the Show Again
TTITLE14=Slim Remembers #3
TTITLE15=On the Move
TTITLE16=What am I Doing in This Town
TTITLE17=Old Time Country Halls
TTITLE18=The Front Row
TTITLE19=So Many Ballads to Play
TTITLE20=My Son's Guitar
TTITLE21=The Only Way
TTITLE22=Life Behind the Windscreen
TTITLE23=The Long Road
TTITLE24=Walk a Country Mile
TTITLE25=Born to be a Yodeller
EXTD=
EXTT0=
EXTT1=
EXTT2=
EXTT3=
EXTT4=
EXTT5=
EXTT6=
EXTT7=
EXTT8=
EXTT9=
EXTT10=
EXTT11=
EXTT12=
EXTT13=
EXTT14=
EXTT15=
EXTT16=
EXTT17=
EXTT18=
EXTT19=
EXTT20=
EXTT21=
EXTT22=
EXTT23=
EXTT24=
EXTT25=
PLAYORDER=
